<svg width="218" height="72" viewBox="0 0 218 72" fill="none" xmlns="http://www.w3.org/2000/svg">
<path d="M54.6399 68.8331H54.6849C54.7329 68.8331 54.7749 68.8181 54.8109 68.7881C54.8469 68.7521 54.8769 68.7101 54.9009 68.6621C54.9309 68.6141 54.9519 68.5631 54.9639 68.5091C54.9819 68.4551 54.9909 68.4041 54.9909 68.3561V63.5411C54.9909 63.4991 54.9819 63.4511 54.9639 63.3971C54.9519 63.3431 54.9309 63.2921 54.9009 63.2441C54.8769 63.1961 54.8469 63.1571 54.8109 63.1271C54.7749 63.0911 54.7329 63.0731 54.6849 63.0731H54.6399V62.9831H58.1049V63.8201H58.0149C58.0029 63.6821 57.9489 63.5621 57.8529 63.4601C57.7569 63.3521 57.6069 63.2981 57.4029 63.2981H55.5939V65.5751H57.0879C57.2259 65.5751 57.3399 65.5331 57.4299 65.4491C57.5259 65.3651 57.5739 65.2661 57.5739 65.1521H57.6639V66.2771H57.5739C57.5739 66.1691 57.5289 66.0761 57.4389 65.9981C57.3489 65.9201 57.2319 65.8811 57.0879 65.8811H55.5939V68.6081H57.5649C57.6789 68.6081 57.7779 68.5811 57.8619 68.5271C57.9459 68.4731 58.0149 68.4101 58.0689 68.3381C58.1289 68.2601 58.1709 68.1791 58.1949 68.0951C58.2249 68.0051 58.2399 67.9301 58.2399 67.8701H58.3299V68.9231H54.6399V68.8331ZM65.3531 67.3301C65.3531 67.6301 65.2931 67.8881 65.1731 68.1041C65.0531 68.3141 64.8971 68.4851 64.7051 68.6171C64.5191 68.7491 64.3061 68.8451 64.0661 68.9051C63.8321 68.9651 63.5981 68.9951 63.3641 68.9951C63.1241 68.9951 62.9171 68.9711 62.7431 68.9231C62.5691 68.8751 62.4101 68.8301 62.2661 68.7881C62.1701 68.7581 62.0831 68.7341 62.0051 68.7161C61.9271 68.6921 61.8491 68.6801 61.7711 68.6801V67.6541H61.8611C61.8611 67.8821 61.9181 68.0651 62.0321 68.2031C62.1521 68.3351 62.2901 68.4371 62.4461 68.5091C62.6021 68.5811 62.7581 68.6291 62.9141 68.6531C63.0701 68.6711 63.1841 68.6801 63.2561 68.6801C63.5141 68.6801 63.7361 68.6441 63.9221 68.5721C64.1081 68.4941 64.2611 68.3951 64.3811 68.2751C64.5011 68.1491 64.5881 68.0111 64.6421 67.8611C64.7021 67.7111 64.7321 67.5581 64.7321 67.4021C64.7321 67.2041 64.6901 67.0391 64.6061 66.9071C64.5221 66.7691 64.4111 66.6491 64.2731 66.5471C64.1411 66.4451 63.9881 66.3581 63.8141 66.2861C63.6401 66.2141 63.4631 66.1421 63.2831 66.0701C63.0791 65.9921 62.8781 65.9111 62.6801 65.8271C62.4821 65.7431 62.3051 65.6411 62.1491 65.5211C61.9931 65.3951 61.8671 65.2481 61.7711 65.0801C61.6751 64.9061 61.6271 64.6931 61.6271 64.4411C61.6271 64.1771 61.6781 63.9491 61.7801 63.7571C61.8821 63.5591 62.0171 63.3971 62.1851 63.2711C62.3591 63.1451 62.5541 63.0521 62.7701 62.9921C62.9921 62.9261 63.2171 62.8931 63.4451 62.8931C63.6011 62.8931 63.7481 62.9051 63.8861 62.9291C64.0241 62.9471 64.1561 62.9711 64.2821 63.0011C64.3841 63.0251 64.4831 63.0461 64.5791 63.0641C64.6751 63.0761 64.7681 63.0821 64.8581 63.0821V64.0091H64.7681C64.7561 63.6971 64.6331 63.4871 64.3991 63.3791C64.1651 63.2651 63.8411 63.2081 63.4271 63.2081C63.1871 63.2081 62.9891 63.2501 62.8331 63.3341C62.6831 63.4121 62.5631 63.5111 62.4731 63.6311C62.3831 63.7451 62.3201 63.8711 62.2841 64.0091C62.2541 64.1411 62.2391 64.2581 62.2391 64.3601C62.2391 64.5281 62.2751 64.6721 62.3471 64.7921C62.4251 64.9121 62.5271 65.0171 62.6531 65.1071C62.7791 65.1971 62.9231 65.2781 63.0851 65.3501C63.2531 65.4221 63.4271 65.4911 63.6071 65.5571C63.8111 65.6351 64.0181 65.7191 64.2281 65.8091C64.4381 65.8991 64.6241 66.0101 64.7861 66.1421C64.9541 66.2741 65.0891 66.4361 65.1911 66.6281C65.2991 66.8201 65.3531 67.0541 65.3531 67.3301ZM68.8112 62.9831H70.0892C70.7552 62.9831 71.2592 63.1121 71.6012 63.3701C71.9492 63.6221 72.1232 63.9821 72.1232 64.4501C72.1232 64.7021 72.0632 64.9271 71.9432 65.1251C71.8232 65.3231 71.6642 65.4911 71.4662 65.6291C71.2742 65.7611 71.0552 65.8631 70.8092 65.9351C70.5692 66.0071 70.3292 66.0431 70.0892 66.0431H69.7472V68.3381C69.7472 68.3861 69.7532 68.4401 69.7652 68.5001C69.7772 68.5541 69.7952 68.6051 69.8192 68.6531C69.8492 68.7011 69.8792 68.7431 69.9092 68.7791C69.9452 68.8151 69.9872 68.8331 70.0352 68.8331H70.0802V68.9231H68.8112V68.8331H68.8562C68.8982 68.8331 68.9372 68.8151 68.9732 68.7791C69.0092 68.7431 69.0392 68.7011 69.0632 68.6531C69.0872 68.6051 69.1052 68.5541 69.1172 68.5001C69.1292 68.4401 69.1352 68.3861 69.1352 68.3381V63.5411C69.1352 63.4571 69.1112 63.3611 69.0632 63.2531C69.0152 63.1451 68.9462 63.0851 68.8562 63.0731H68.8112V62.9831ZM69.7472 63.2981V65.7281H70.0172C70.2572 65.7281 70.4702 65.6951 70.6562 65.6291C70.8482 65.5631 71.0072 65.4761 71.1332 65.3681C71.2592 65.2601 71.3552 65.1371 71.4212 64.9991C71.4872 64.8611 71.5202 64.7201 71.5202 64.5761C71.5202 64.4021 71.4902 64.2401 71.4302 64.0901C71.3762 63.9341 71.2832 63.7991 71.1512 63.6851C71.0252 63.5651 70.8572 63.4721 70.6472 63.4061C70.4372 63.3341 70.1792 63.2981 69.8732 63.2981H69.7472ZM77.6652 68.8331H77.7102C77.8542 68.8331 77.9262 68.7671 77.9262 68.6351C77.9262 68.5871 77.9172 68.5361 77.8992 68.4821L77.0892 66.2951H75.5142L74.7312 68.4461C74.7132 68.4941 74.7042 68.5391 74.7042 68.5811C74.7042 68.6591 74.7252 68.7221 74.7672 68.7701C74.8092 68.8121 74.8542 68.8331 74.9022 68.8331H74.9472V68.9231H73.9482V68.8331H73.9932C74.0712 68.8331 74.1462 68.7881 74.2182 68.6981C74.2962 68.6021 74.3592 68.4911 74.4072 68.3651L76.4682 62.8751L78.4842 68.3111C78.5262 68.4311 78.5832 68.5481 78.6552 68.6621C78.7332 68.7761 78.8322 68.8331 78.9522 68.8331H78.9972V68.9231H77.6652V68.8331ZM75.6042 65.9891H76.9902L76.2972 64.1081L75.6042 65.9891ZM85.3858 69.0131C85.3078 69.1271 85.2358 69.2471 85.1698 69.3731C85.4398 69.4031 85.6348 69.4661 85.7548 69.5621C85.8808 69.6641 85.9438 69.7781 85.9438 69.9041C85.9438 70.0601 85.8538 70.2041 85.6738 70.3361C85.4998 70.4681 85.2508 70.5341 84.9268 70.5341C84.8848 70.5341 84.8458 70.5311 84.8098 70.5251C84.7738 70.5251 84.7378 70.5221 84.7018 70.5161C84.6838 70.5161 84.6628 70.5131 84.6388 70.5071C84.6148 70.5071 84.5938 70.5071 84.5758 70.5071V70.4351H84.6748C84.9028 70.4351 85.0978 70.3841 85.2598 70.2821C85.4218 70.1861 85.5028 70.0751 85.5028 69.9491C85.5028 69.8471 85.4428 69.7481 85.3228 69.6521C85.2028 69.5621 85.0318 69.5021 84.8098 69.4721L85.0978 69.0041C84.6058 68.9801 84.1768 68.8781 83.8108 68.6981C83.4448 68.5121 83.1388 68.2781 82.8928 67.9961C82.6468 67.7081 82.4608 67.3871 82.3348 67.0331C82.2148 66.6791 82.1548 66.3221 82.1548 65.9621C82.1548 65.5901 82.2208 65.2211 82.3528 64.8551C82.4848 64.4891 82.6858 64.1621 82.9558 63.8741C83.2258 63.5801 83.5648 63.3431 83.9728 63.1631C84.3808 62.9831 84.8608 62.8931 85.4128 62.8931C85.6108 62.8931 85.7878 62.9111 85.9438 62.9471C86.1058 62.9831 86.2498 63.0191 86.3758 63.0551C86.4658 63.0851 86.5468 63.1091 86.6188 63.1271C86.6968 63.1391 86.7718 63.1451 86.8438 63.1451V64.1441H86.7538C86.7178 63.9581 86.6518 63.8051 86.5558 63.6851C86.4598 63.5591 86.3458 63.4631 86.2138 63.3971C86.0878 63.3311 85.9498 63.2861 85.7998 63.2621C85.6558 63.2321 85.5148 63.2171 85.3768 63.2171C84.9328 63.2171 84.5458 63.2981 84.2158 63.4601C83.8918 63.6161 83.6218 63.8231 83.4058 64.0811C83.1898 64.3331 83.0278 64.6181 82.9198 64.9361C82.8178 65.2541 82.7668 65.5691 82.7668 65.8811C82.7668 66.2351 82.8358 66.5831 82.9738 66.9251C83.1118 67.2611 83.3008 67.5611 83.5408 67.8251C83.7868 68.0831 84.0718 68.2871 84.3958 68.4371C84.7198 68.5871 85.0708 68.6621 85.4488 68.6621C85.5568 68.6621 85.6828 68.6501 85.8268 68.6261C85.9708 68.6021 86.1118 68.5571 86.2498 68.4911C86.3938 68.4191 86.5288 68.3261 86.6548 68.2121C86.7808 68.0921 86.8798 67.9301 86.9518 67.7261H87.0418V68.7251C86.9518 68.7251 86.8558 68.7371 86.7538 68.7611C86.6518 68.7851 86.5408 68.8121 86.4208 68.8421C86.2768 68.8781 86.1148 68.9111 85.9348 68.9411C85.7548 68.9771 85.5718 69.0011 85.3858 69.0131ZM92.9258 62.8931C93.3938 62.8931 93.8138 62.9771 94.1858 63.1451C94.5578 63.3071 94.8728 63.5291 95.1308 63.8111C95.3948 64.0871 95.5958 64.4111 95.7338 64.7831C95.8778 65.1491 95.9498 65.5331 95.9498 65.9351C95.9498 66.3851 95.8658 66.7991 95.6978 67.1771C95.5358 67.5551 95.3108 67.8791 95.0228 68.1491C94.7348 68.4191 94.3988 68.6321 94.0148 68.7881C93.6368 68.9381 93.2318 69.0131 92.7998 69.0131C92.3378 69.0131 91.9208 68.9291 91.5488 68.7611C91.1828 68.5931 90.8708 68.3711 90.6128 68.0951C90.3608 67.8191 90.1658 67.5011 90.0278 67.1411C89.8898 66.7811 89.8208 66.4061 89.8208 66.0161C89.8208 65.6321 89.8898 65.2541 90.0278 64.8821C90.1658 64.5041 90.3668 64.1681 90.6308 63.8741C90.9008 63.5801 91.2278 63.3431 91.6118 63.1631C91.9958 62.9831 92.4338 62.8931 92.9258 62.8931ZM92.9168 68.6981C93.3188 68.6801 93.6698 68.5901 93.9698 68.4281C94.2758 68.2601 94.5308 68.0501 94.7348 67.7981C94.9388 67.5401 95.0888 67.2581 95.1848 66.9521C95.2868 66.6461 95.3378 66.3431 95.3378 66.0431C95.3378 65.7131 95.2778 65.3801 95.1578 65.0441C95.0378 64.7081 94.8668 64.4051 94.6448 64.1351C94.4228 63.8591 94.1558 63.6371 93.8438 63.4691C93.5378 63.2951 93.1928 63.2081 92.8088 63.2081C92.4368 63.2081 92.1038 63.2921 91.8098 63.4601C91.5158 63.6221 91.2638 63.8321 91.0538 64.0901C90.8498 64.3481 90.6938 64.6361 90.5858 64.9541C90.4778 65.2721 90.4238 65.5841 90.4238 65.8901C90.4238 66.2201 90.4868 66.5531 90.6128 66.8891C90.7388 67.2191 90.9128 67.5191 91.1348 67.7891C91.3568 68.0591 91.6178 68.2781 91.9178 68.4461C92.2238 68.6141 92.5568 68.6981 92.9168 68.6981ZM104.468 68.8331H104.513C104.555 68.8331 104.594 68.8151 104.63 68.7791C104.666 68.7431 104.696 68.7011 104.72 68.6531C104.75 68.6051 104.771 68.5541 104.783 68.5001C104.795 68.4401 104.801 68.3861 104.801 68.3381V63.5411C104.801 63.4991 104.795 63.4511 104.783 63.3971C104.771 63.3431 104.753 63.2921 104.729 63.2441C104.705 63.1961 104.675 63.1571 104.639 63.1271C104.603 63.0911 104.561 63.0731 104.513 63.0731H104.468V62.9831H106.205C106.679 62.9831 107.105 63.0671 107.483 63.2351C107.861 63.3971 108.179 63.6191 108.437 63.9011C108.701 64.1771 108.902 64.4951 109.04 64.8551C109.178 65.2151 109.247 65.5901 109.247 65.9801C109.247 66.3461 109.181 66.7061 109.049 67.0601C108.917 67.4081 108.719 67.7201 108.455 67.9961C108.191 68.2721 107.861 68.4971 107.465 68.6711C107.069 68.8391 106.61 68.9231 106.088 68.9231H104.468V68.8331ZM108.635 66.1151C108.635 65.7311 108.566 65.3681 108.428 65.0261C108.29 64.6841 108.095 64.3871 107.843 64.1351C107.597 63.8771 107.303 63.6731 106.961 63.5231C106.625 63.3731 106.259 63.2981 105.863 63.2981H105.404V68.6081H105.881C106.205 68.6081 106.529 68.5601 106.853 68.4641C107.183 68.3621 107.48 68.2091 107.744 68.0051C108.008 67.7951 108.221 67.5341 108.383 67.2221C108.551 66.9101 108.635 66.5411 108.635 66.1151ZM112.723 68.8331H112.768C112.816 68.8331 112.858 68.8181 112.894 68.7881C112.93 68.7521 112.96 68.7101 112.984 68.6621C113.014 68.6141 113.035 68.5631 113.047 68.5091C113.065 68.4551 113.074 68.4041 113.074 68.3561V63.5411C113.074 63.4991 113.065 63.4511 113.047 63.3971C113.035 63.3431 113.014 63.2921 112.984 63.2441C112.96 63.1961 112.93 63.1571 112.894 63.1271C112.858 63.0911 112.816 63.0731 112.768 63.0731H112.723V62.9831H116.188V63.8201H116.098C116.086 63.6821 116.032 63.5621 115.936 63.4601C115.84 63.3521 115.69 63.2981 115.486 63.2981H113.677V65.5751H115.171C115.309 65.5751 115.423 65.5331 115.513 65.4491C115.609 65.3651 115.657 65.2661 115.657 65.1521H115.747V66.2771H115.657C115.657 66.1691 115.612 66.0761 115.522 65.9981C115.432 65.9201 115.315 65.8811 115.171 65.8811H113.677V68.6081H115.648C115.762 68.6081 115.861 68.5811 115.945 68.5271C116.029 68.4731 116.098 68.4101 116.152 68.3381C116.212 68.2601 116.254 68.1791 116.278 68.0951C116.308 68.0051 116.323 67.9301 116.323 67.8701H116.413V68.9231H112.723V68.8331ZM124.829 68.8331H124.874C124.916 68.8331 124.955 68.8151 124.991 68.7791C125.027 68.7431 125.057 68.7011 125.081 68.6531C125.111 68.6051 125.132 68.5541 125.144 68.5001C125.156 68.4401 125.162 68.3861 125.162 68.3381V63.5501C125.162 63.5081 125.156 63.4601 125.144 63.4061C125.132 63.3521 125.111 63.3011 125.081 63.2531C125.057 63.1991 125.024 63.1571 124.982 63.1271C124.946 63.0911 124.904 63.0731 124.856 63.0731H124.811V62.9831H126.287C126.845 62.9831 127.28 63.1061 127.592 63.3521C127.91 63.5981 128.069 63.9251 128.069 64.3331C128.069 64.5071 128.039 64.6631 127.979 64.8011C127.919 64.9391 127.841 65.0621 127.745 65.1701C127.655 65.2781 127.556 65.3711 127.448 65.4491C127.34 65.5211 127.238 65.5811 127.142 65.6291C127.394 65.6771 127.604 65.7581 127.772 65.8721C127.94 65.9861 128.075 66.1181 128.177 66.2681C128.285 66.4121 128.36 66.5681 128.402 66.7361C128.444 66.9041 128.465 67.0691 128.465 67.2311C128.465 67.5431 128.408 67.8071 128.294 68.0231C128.18 68.2331 128.027 68.4071 127.835 68.5451C127.649 68.6771 127.433 68.7731 127.187 68.8331C126.947 68.8931 126.698 68.9231 126.44 68.9231H124.829V68.8331ZM127.853 67.2851C127.805 66.8231 127.649 66.4661 127.385 66.2141C127.121 65.9621 126.749 65.8361 126.269 65.8361H125.765V68.6261H126.287C126.773 68.6261 127.154 68.5181 127.43 68.3021C127.712 68.0801 127.853 67.7741 127.853 67.3841V67.2851ZM127.484 64.4141C127.466 64.0661 127.343 63.7901 127.115 63.5861C126.893 63.3821 126.593 63.2801 126.215 63.2801H125.765V65.5481H126.233C126.485 65.5481 126.689 65.5151 126.845 65.4491C127.007 65.3831 127.136 65.2991 127.232 65.1971C127.328 65.0891 127.394 64.9721 127.43 64.8461C127.466 64.7201 127.484 64.5971 127.484 64.4771V64.4141ZM131.933 68.8331H131.978C132.026 68.8331 132.068 68.8181 132.104 68.7881C132.14 68.7521 132.17 68.7101 132.194 68.6621C132.224 68.6141 132.245 68.5631 132.257 68.5091C132.275 68.4551 132.284 68.4041 132.284 68.3561V63.5411C132.284 63.4991 132.275 63.4511 132.257 63.3971C132.245 63.3431 132.224 63.2921 132.194 63.2441C132.17 63.1961 132.14 63.1571 132.104 63.1271C132.068 63.0911 132.026 63.0731 131.978 63.0731H131.933V62.9831H135.398V63.8201H135.308C135.296 63.6821 135.242 63.5621 135.146 63.4601C135.05 63.3521 134.9 63.2981 134.696 63.2981H132.887V65.5751H134.381C134.519 65.5751 134.633 65.5331 134.723 65.4491C134.819 65.3651 134.867 65.2661 134.867 65.1521H134.957V66.2771H134.867C134.867 66.1691 134.822 66.0761 134.732 65.9981C134.642 65.9201 134.525 65.8811 134.381 65.8811H132.887V68.6081H134.858C134.972 68.6081 135.071 68.5811 135.155 68.5271C135.239 68.4731 135.308 68.4101 135.362 68.3381C135.422 68.2601 135.464 68.1791 135.488 68.0951C135.518 68.0051 135.533 67.9301 135.533 67.8701H135.623V68.9231H131.933V68.8331ZM139.001 68.8331H139.046C139.094 68.8331 139.136 68.8181 139.172 68.7881C139.208 68.7521 139.238 68.7101 139.262 68.6621C139.292 68.6141 139.313 68.5631 139.325 68.5091C139.343 68.4551 139.352 68.4041 139.352 68.3561V63.5411C139.352 63.4991 139.343 63.4511 139.325 63.3971C139.313 63.3431 139.292 63.2921 139.262 63.2441C139.238 63.1961 139.208 63.1571 139.172 63.1271C139.136 63.0911 139.094 63.0731 139.046 63.0731H139.001V62.9831H140.297V63.0731H140.252C140.204 63.0731 140.162 63.0911 140.126 63.1271C140.09 63.1571 140.06 63.1961 140.036 63.2441C140.012 63.2921 139.991 63.3431 139.973 63.3971C139.961 63.4511 139.955 63.4991 139.955 63.5411V68.5901H141.926C142.04 68.5901 142.139 68.5631 142.223 68.5091C142.307 68.4551 142.376 68.3891 142.43 68.3111C142.49 68.2271 142.532 68.1401 142.556 68.0501C142.586 67.9541 142.601 67.8671 142.601 67.7891H142.691V68.9231H139.001V68.8331ZM145.884 68.8331H145.929C145.977 68.8331 146.019 68.8181 146.055 68.7881C146.091 68.7521 146.121 68.7101 146.145 68.6621C146.175 68.6141 146.196 68.5631 146.208 68.5091C146.226 68.4551 146.235 68.4041 146.235 68.3561V63.5411C146.235 63.4991 146.226 63.4511 146.208 63.3971C146.196 63.3431 146.175 63.2921 146.145 63.2441C146.121 63.1961 146.091 63.1571 146.055 63.1271C146.019 63.0911 145.977 63.0731 145.929 63.0731H145.884V62.9831H149.349V63.8201H149.259C149.247 63.6821 149.193 63.5621 149.097 63.4601C149.001 63.3521 148.851 63.2981 148.647 63.2981H146.838V65.5751H148.332C148.47 65.5751 148.584 65.5331 148.674 65.4491C148.77 65.3651 148.818 65.2661 148.818 65.1521H148.908V66.2771H148.818C148.818 66.1691 148.773 66.0761 148.683 65.9981C148.593 65.9201 148.476 65.8811 148.332 65.8811H146.838V68.6081H148.809C148.923 68.6081 149.022 68.5811 149.106 68.5271C149.19 68.4731 149.259 68.4101 149.313 68.3381C149.373 68.2601 149.415 68.1791 149.439 68.0951C149.469 68.0051 149.484 67.9301 149.484 67.8701H149.574V68.9231H145.884V68.8331ZM152.701 68.9231L155.689 63.2981H153.601C153.505 63.2981 153.421 63.3221 153.349 63.3701C153.277 63.4121 153.217 63.4691 153.169 63.5411C153.121 63.6071 153.085 63.6821 153.061 63.7661C153.037 63.8441 153.025 63.9191 153.025 63.9911H152.935V62.9831H156.562L153.574 68.6081H155.887C155.983 68.6081 156.067 68.5871 156.139 68.5451C156.211 68.4971 156.271 68.4371 156.319 68.3651C156.367 68.2931 156.403 68.2181 156.427 68.1401C156.451 68.0561 156.463 67.9781 156.463 67.9061H156.553V68.9231H152.701ZM163.318 68.8331H163.363C163.507 68.8331 163.579 68.7671 163.579 68.6351C163.579 68.5871 163.57 68.5361 163.552 68.4821L162.742 66.2951H161.167L160.384 68.4461C160.366 68.4941 160.357 68.5391 160.357 68.5811C160.357 68.6591 160.378 68.7221 160.42 68.7701C160.462 68.8121 160.507 68.8331 160.555 68.8331H160.6V68.9231H159.601V68.8331H159.646C159.724 68.8331 159.799 68.7881 159.871 68.6981C159.949 68.6021 160.012 68.4911 160.06 68.3651L162.121 62.8751L164.137 68.3111C164.179 68.4311 164.236 68.5481 164.308 68.6621C164.386 68.7761 164.485 68.8331 164.605 68.8331H164.65V68.9231H163.318V68.8331ZM161.257 65.9891H162.643L161.95 64.1081L161.257 65.9891Z" fill="black"/>
<path d="M5.05451 45.6338V50.5538H3.59951V40.6238H5.05451V45.0638H9.59951V40.6238H11.0545V50.5538H9.59951V45.6338H5.05451ZM21.2509 50.5538V40.6238H27.2659L27.1159 41.6288L24.3259 41.1638C23.8359 41.1638 23.2959 41.2488 22.7059 41.4188V45.0638H26.0359V45.6338H22.7059V50.0138L27.3559 49.5488L27.2059 50.5538H21.2509ZM38.6437 45.8138V50.5538H37.1737V40.6238H40.4137C41.4237 40.6238 42.2487 40.8488 42.8887 41.2988C43.5387 41.7488 43.8637 42.3438 43.8637 43.0838C43.8637 43.8138 43.6037 44.3938 43.0837 44.8238C42.5737 45.2438 41.8787 45.5338 40.9987 45.6938L45.0187 50.5538L43.2787 50.7638L39.7987 45.8138H38.6437ZM38.6437 45.3638H39.6037C41.4037 45.3638 42.3037 44.6538 42.3037 43.2338C42.3037 42.9938 42.2437 42.7238 42.1237 42.4238C41.8937 41.7938 41.4037 41.3788 40.6537 41.1788C39.9737 41.1788 39.3037 41.2638 38.6437 41.4338V45.3638ZM55.6192 40.6238V50.5538H54.2392V40.6238H55.6192ZM67.3561 50.5538H65.8261V40.6238H67.3561V45.5138L71.9911 40.6238H72.9811L68.2861 45.2438L73.6111 50.5538L71.6911 50.7488L67.3561 45.6638V50.5538ZM81.2667 50.5538L85.7217 40.3838H85.9467L90.4017 50.5538H88.7667L87.6417 47.8538H83.1867L82.0767 50.5538H81.2667ZM83.4117 47.2838H87.4017L85.4217 42.4238L83.4117 47.2838Z" fill="black"/>
<path d="M110.65 50.5538V40.6238H113.485C114.665 40.6238 115.73 40.8738 116.68 41.3738C117.19 41.6338 117.635 41.9588 118.015 42.3488C118.395 42.7388 118.7 43.2388 118.93 43.8488C119.16 44.4488 119.275 45.1188 119.275 45.8588C119.275 46.9188 119.01 47.8138 118.48 48.5438C117.51 49.8838 115.94 50.5538 113.77 50.5538H110.65ZM113.47 50.0438C114.74 50.0438 115.76 49.6688 116.53 48.9188C117.3 48.1688 117.685 47.0688 117.685 45.6188C117.685 44.4988 117.38 43.5438 116.77 42.7538C116.16 41.9538 115.37 41.4238 114.4 41.1638C113.53 41.1638 112.77 41.2688 112.12 41.4788V49.9088C112.44 49.9988 112.89 50.0438 113.47 50.0438ZM127.57 50.5538L132.025 40.3838H132.25L136.705 50.5538H135.07L133.945 47.8538H129.49L128.38 50.5538H127.57ZM129.715 47.2838H133.705L131.725 42.4238L129.715 47.2838ZM147.174 45.8138V50.5538H145.704V40.6238H148.944C149.954 40.6238 150.779 40.8488 151.419 41.2988C152.069 41.7488 152.394 42.3438 152.394 43.0838C152.394 43.8138 152.134 44.3938 151.614 44.8238C151.104 45.2438 150.409 45.5338 149.529 45.6938L153.549 50.5538L151.809 50.7638L148.329 45.8138H147.174ZM147.174 45.3638H148.134C149.934 45.3638 150.834 44.6538 150.834 43.2338C150.834 42.9938 150.774 42.7238 150.654 42.4238C150.424 41.7938 149.934 41.3788 149.184 41.1788C148.504 41.1788 147.834 41.2638 147.174 41.4338V45.3638ZM162.769 50.5538V40.6238H164.239V49.7438C164.849 49.9238 165.339 50.0138 165.709 50.0138L168.424 49.5488L168.244 50.5538H162.769ZM178.959 40.6238V50.5538H177.579V40.6238H178.959ZM196.711 50.7188H196.456L189.886 42.4988H189.826V50.5538H189.166V40.6238H190.276L195.991 47.8388H196.051V40.6238H196.711V50.7188ZM213.19 46.2788H214.645V50.2238C213.785 50.5638 212.75 50.7338 211.54 50.7338C210.07 50.7338 208.805 50.3438 207.745 49.5638C207.225 49.1738 206.81 48.6638 206.5 48.0338C206.19 47.3938 206.035 46.6888 206.035 45.9188C206.035 45.1488 206.155 44.4588 206.395 43.8488C206.635 43.2288 206.945 42.7138 207.325 42.3038C207.715 41.8938 208.165 41.5438 208.675 41.2538C209.625 40.7138 210.67 40.4438 211.81 40.4438C212.25 40.4438 212.725 40.4938 213.235 40.5938C213.745 40.6938 214.135 40.7988 214.405 40.9088L214.255 41.9138C212.905 41.3438 211.785 41.0588 210.895 41.0588C209.885 41.3188 209.085 41.8538 208.495 42.6638C207.915 43.4738 207.625 44.4638 207.625 45.6338C207.625 47.0938 208.01 48.2238 208.78 49.0238C209.55 49.8138 210.565 50.2088 211.825 50.2088C212.325 50.2088 212.78 50.1588 213.19 50.0588V46.2788Z" fill="#CDA582"/>
<path d="M105.703 24.2227C105.719 24.2305 105.734 24.2441 105.75 24.2637C105.77 24.2871 105.779 24.3125 105.779 24.3398C105.779 24.3828 105.766 24.416 105.738 24.4395C105.715 24.4668 105.686 24.4805 105.65 24.4805L105.533 24.4688C105.518 24.4766 105.506 24.4805 105.498 24.4805C103.33 24.3594 101.193 24.2852 99.0879 24.2578C96.9824 24.2344 94.8594 24.2266 92.7187 24.2344C92.3672 24.2344 92.0195 24.2344 91.6758 24.2344C91.4609 24.2344 91.2871 24.2754 91.1543 24.3574C91.0215 24.4395 90.9082 24.584 90.8144 24.791C90.2637 26.0449 89.7012 27.2949 89.1269 28.541C88.8144 29.2207 88.5039 29.9004 88.1953 30.5801C87.9726 31.0762 87.7539 31.5781 87.5391 32.0859C87.4258 32.3359 87.3184 32.5859 87.2168 32.8359C87.209 32.8594 87.1953 32.8848 87.1758 32.9121C87.1601 32.9824 87.1309 33.0469 87.0879 33.1055C87.0176 33.1641 86.9258 33.1973 86.8125 33.2051C86.7031 33.2168 86.6074 33.1953 86.5254 33.1406C86.4434 33.0898 86.4199 33 86.4551 32.8711C86.5332 32.6562 86.6191 32.4473 86.7129 32.2441C87.5371 30.3613 88.3672 28.4785 89.2031 26.5957C89.3984 26.1582 89.5957 25.7148 89.7949 25.2656C89.8223 25.1992 89.8516 25.127 89.8828 25.0488C89.9531 24.8926 90.0234 24.7383 90.0937 24.5859C90.1601 24.4141 90.1172 24.3184 89.9648 24.2988C88.8711 24.3262 87.7832 24.375 86.7012 24.4453C86.1348 24.4766 85.5625 24.5059 84.9844 24.5332C84.6601 24.541 84.4336 24.6953 84.3047 24.9961C83.7383 26.2188 83.1484 27.4316 82.5351 28.6348C82.1758 29.3457 81.8105 30.0586 81.4394 30.7734C81.3027 31.0312 81.166 31.2891 81.0293 31.5469C80.9512 31.7109 80.8652 31.8652 80.7715 32.0098C80.6777 32.1387 80.5508 32.2168 80.3906 32.2441C80.2305 32.2754 80.0898 32.2676 79.9687 32.2207C79.8516 32.1738 79.7969 32.0996 79.8047 31.998C79.8476 31.7988 79.9082 31.6094 79.9863 31.4297C80.6035 29.8477 81.2773 28.293 82.0078 26.7656C82.2656 26.2227 82.5234 25.6797 82.7812 25.1367C82.8516 24.9648 82.8047 24.8672 82.6406 24.8438C82.4766 24.8242 82.2363 24.832 81.9199 24.8672C81.9121 24.8672 81.8984 24.8672 81.8789 24.8672C81.3281 24.918 80.7617 24.9941 80.1797 25.0957C79.6016 25.2012 79.2226 25.2793 79.043 25.3301C78.8633 25.373 78.6797 25.3945 78.4922 25.3945C78.4805 25.4062 78.4668 25.4121 78.4512 25.4121C78.4355 25.4121 78.418 25.4062 78.3984 25.3945L78.2988 25.4121C78.2637 25.4121 78.2285 25.3984 78.1934 25.3711C78.1582 25.3438 78.1406 25.3086 78.1406 25.2656C78.1484 25.2422 78.1621 25.2129 78.1816 25.1777C78.2051 25.1426 78.2305 25.1172 78.2578 25.1016C78.9453 24.8594 79.6465 24.6914 80.3613 24.5977C81.1777 24.4766 81.9941 24.373 82.8105 24.2871C83.084 24.2793 83.2773 24.1543 83.3906 23.9121C83.6289 23.4238 83.8769 22.9355 84.1348 22.4473C84.4434 21.8691 84.7578 21.293 85.0781 20.7188C85.1875 20.5039 85.2988 20.2891 85.4121 20.0742C85.4277 20.0547 85.4414 20.0332 85.4531 20.0098C85.4844 19.9395 85.5215 19.875 85.5644 19.8164C85.7793 19.5664 85.959 19.2949 86.1035 19.002C86.2519 18.709 86.3867 18.4082 86.5078 18.0996C86.5664 17.9707 86.623 17.8418 86.6777 17.7129C87.7168 15.3691 88.7422 13.0195 89.7539 10.6641C90.2187 9.63281 90.5762 8.57031 90.8262 7.47656C90.9277 7.08203 90.9531 6.6875 90.9023 6.29297C90.8516 6.0625 90.7012 5.94336 90.4512 5.93555C90.2012 5.92383 89.8984 5.98828 89.543 6.12891C89.1875 6.26563 88.8184 6.43359 88.4355 6.63281C88.0527 6.82813 87.707 7.02148 87.3984 7.21289C87.0898 7.40039 86.8613 7.54102 86.7129 7.63477C86.6699 7.6582 86.6406 7.67578 86.625 7.6875C82.5937 10.1953 78.9844 13.207 75.7969 16.7227C75.4453 17.1094 75.1094 17.5098 74.7891 17.9238C74.4648 18.334 74.168 18.7676 73.8984 19.2246C73.6953 19.5684 73.5332 19.9277 73.4121 20.3027C73.2637 20.8809 73.3066 21.3223 73.541 21.627C73.7715 21.9316 74.1191 22.1367 74.584 22.2422C75.0488 22.3438 75.5547 22.3789 76.1016 22.3477C76.6445 22.3164 77.1562 22.2617 77.6367 22.1836C78.1211 22.1016 78.4961 22.0215 78.7617 21.9434C79.0781 21.8652 79.3965 21.791 79.7168 21.7207C79.9902 21.6699 80.0664 21.6875 79.9453 21.7734C79.8242 21.8594 79.5625 21.9785 79.1601 22.1309C78.7578 22.2793 78.2734 22.4258 77.707 22.5703C77.1445 22.7109 76.5625 22.8125 75.9609 22.875C75.3594 22.9336 74.7949 22.9199 74.2676 22.834C73.7402 22.748 73.3105 22.5527 72.9785 22.248C72.6465 21.9395 72.4766 21.4844 72.4687 20.8828C72.4687 20.8672 72.4687 20.8516 72.4687 20.8359C72.4883 20.457 72.5781 20.0957 72.7383 19.752C73.0078 19.1309 73.3516 18.5547 73.7695 18.0234C74.2109 17.4492 74.6719 16.8945 75.1523 16.3594C78.2461 12.9648 81.7305 10.0352 85.6055 7.57031C86.0625 7.27734 86.5937 6.95703 87.1992 6.60938C87.8047 6.26172 88.4277 5.9707 89.0684 5.73633C89.709 5.49805 90.3086 5.39062 90.8672 5.41406C91.4844 5.44922 91.8223 5.77148 91.8809 6.38086C91.9082 6.60742 91.9062 6.82813 91.875 7.04297C91.8476 7.25781 91.8066 7.47266 91.7519 7.6875C91.7441 7.71875 91.7363 7.75195 91.7285 7.78711C91.6152 8.30273 91.4687 8.80664 91.2891 9.29883C91.1094 9.78711 90.916 10.2715 90.709 10.752C88.9473 14.9395 87.1035 19.0859 85.1777 23.1914C85.1191 23.3125 85.0644 23.4375 85.0137 23.5664C84.9277 23.7656 84.9355 23.9043 85.0371 23.9824C85.1426 24.0566 85.3164 24.0938 85.5586 24.0938C85.8047 24.0938 86.0918 24.082 86.4199 24.0586C86.4707 24.0586 86.5215 24.0527 86.5723 24.041C86.7871 24.0332 87.0059 24.0215 87.2285 24.0059C88.2168 23.9277 89.1973 23.875 90.1699 23.8477C90.3418 23.8477 90.4609 23.7754 90.5273 23.6309C90.6055 23.4746 90.6797 23.3164 90.75 23.1562C92.0195 20.3633 93.3398 17.5957 94.7109 14.8535C96.082 12.1113 97.4726 9.37891 98.8828 6.65625C98.8984 6.62109 98.916 6.58594 98.9355 6.55078C98.9863 6.42188 99.0625 6.31445 99.1641 6.22852C99.2422 6.18555 99.332 6.16406 99.4336 6.16406C99.5391 6.16406 99.6269 6.1875 99.6973 6.23438C99.7715 6.28125 99.7871 6.36523 99.7441 6.48633C99.7363 6.51367 99.7246 6.54297 99.709 6.57422C99.5957 6.86719 99.4707 7.15625 99.334 7.44141C98.6387 8.83984 97.9375 10.2363 97.2305 11.6309C96.9844 12.127 96.7363 12.625 96.4863 13.125C94.8457 16.3984 93.2383 19.6895 91.6641 22.998C91.6367 23.0605 91.6074 23.1211 91.5762 23.1797C91.541 23.25 91.5098 23.3184 91.4824 23.3848C91.3887 23.5918 91.3828 23.7266 91.4648 23.7891C91.5469 23.8477 91.6777 23.8672 91.8574 23.8477C93.7402 23.7461 95.6582 23.7246 97.6113 23.7832C99.5684 23.8379 101.51 23.916 103.436 24.0176C104.025 24.0449 104.613 24.0742 105.199 24.1055C105.227 24.1055 105.248 24.1055 105.264 24.1055C105.342 24.1055 105.418 24.1113 105.492 24.123C105.57 24.1387 105.641 24.1719 105.703 24.2227ZM143.087 16.0898C142.794 16.1172 142.497 16.1426 142.196 16.166C141.923 16.1934 141.648 16.2188 141.37 16.2422C139.378 16.4492 137.394 16.7168 135.417 17.0449C133.148 17.4043 130.882 17.834 128.62 18.334C128.226 18.4199 127.861 18.5781 127.525 18.8086C124.829 20.6055 122.048 22.2227 119.181 23.6602C116.314 25.0938 113.372 26.377 110.357 27.5098C109.04 28.0254 107.7 28.459 106.337 28.8105C105.708 28.9746 105.068 29.0781 104.415 29.1211C104.329 29.1289 104.243 29.1328 104.157 29.1328C103.864 29.1445 103.585 29.0977 103.32 28.9922C102.905 28.8125 102.78 28.5117 102.945 28.0898C103.073 27.7891 103.263 27.5234 103.513 27.293C104.001 26.8125 104.542 26.4004 105.136 26.0566C106.597 25.1973 108.109 24.4395 109.671 23.7832C111.218 23.1152 112.786 22.502 114.376 21.9434C114.419 21.9355 114.458 21.9219 114.493 21.9023C114.544 21.8789 114.601 21.8574 114.663 21.8379C114.894 21.7715 115.048 21.6172 115.126 21.375C115.263 21.0156 115.405 20.6582 115.554 20.3027C115.577 20.2441 115.603 20.1797 115.63 20.1094C115.954 19.3047 116.284 18.4941 116.62 17.6777C117.249 16.1387 117.876 14.5957 118.501 13.0488C118.915 12.0762 119.247 11.0742 119.497 10.043C119.513 9.94922 119.542 9.85547 119.585 9.76172C119.663 9.64844 119.767 9.60938 119.896 9.64453C119.946 9.62891 120.003 9.62891 120.066 9.64453C120.116 9.65234 120.157 9.67383 120.189 9.70898C120.224 9.74414 120.241 9.78711 120.241 9.83789C120.253 9.99414 120.245 10.1445 120.218 10.2891C120.03 11.1992 119.751 12.084 119.38 12.9434C118.743 14.4902 118.103 16.041 117.458 17.5957C117.2 18.2324 116.939 18.8691 116.673 19.5059C116.622 19.627 116.571 19.748 116.521 19.8691C116.364 20.2559 116.204 20.6465 116.04 21.041C116.032 21.0566 116.029 21.0684 116.029 21.0762C116.001 21.1191 115.986 21.1602 115.982 21.1992C115.978 21.2383 115.997 21.2754 116.04 21.3105C116.048 21.3184 116.062 21.3262 116.081 21.334C116.097 21.3262 116.118 21.3184 116.146 21.3105C116.154 21.3105 116.161 21.3105 116.169 21.3105C116.575 21.1816 116.976 21.0527 117.37 20.9238C118.073 20.6934 118.773 20.4648 119.468 20.2383C121.945 19.4766 124.443 18.8105 126.962 18.2402C127.263 18.1738 127.536 18.0547 127.782 17.8828C128.497 17.375 129.2 16.8555 129.892 16.3242C130.583 15.7891 131.247 15.2246 131.884 14.6309C132.579 14.0059 133.21 13.3145 133.777 12.5566C134.112 12.1191 134.366 11.6348 134.538 11.1035C134.773 10.2871 134.622 9.56836 134.087 8.94727C133.892 8.7168 133.671 8.51953 133.425 8.35547C133.179 8.19141 132.919 8.04883 132.646 7.92773C131.708 7.52539 130.732 7.26758 129.716 7.1543C128.833 7.04492 127.948 6.99023 127.062 6.99023C126.253 6.99023 125.446 7.02344 124.642 7.08984C122.568 7.25391 120.517 7.56836 118.489 8.0332C117.107 8.33398 115.751 8.70898 114.423 9.1582C113.095 9.60352 111.804 10.166 110.55 10.8457C110.085 11.084 109.636 11.3457 109.202 11.6309C108.769 11.9121 108.355 12.2207 107.96 12.5566C107.659 12.834 107.38 13.127 107.122 13.4355C106.931 13.6426 106.792 13.8828 106.706 14.1562C106.57 14.5781 106.661 14.9395 106.982 15.2402C107.177 15.4277 107.404 15.5684 107.661 15.6621C108.099 15.8457 108.554 15.9531 109.027 15.9844C109.277 16.0039 109.53 16.0176 109.788 16.0254C110.132 16.041 110.476 16.0586 110.82 16.0781C111.097 16.0938 111.368 16.1191 111.634 16.1543C111.669 16.1621 111.698 16.1797 111.722 16.207C111.749 16.2305 111.771 16.2598 111.786 16.2949C111.794 16.3652 111.777 16.4121 111.734 16.4355C111.691 16.4551 111.648 16.4609 111.605 16.4531H111.529C111.505 16.4531 111.48 16.4531 111.452 16.4531C111.202 16.4414 110.958 16.4355 110.72 16.4355C110.642 16.4355 110.564 16.4355 110.486 16.4355C110.364 16.4355 110.239 16.4355 110.111 16.4355H110.099C109.747 16.4355 109.4 16.4277 109.056 16.4121C108.712 16.3965 108.368 16.3535 108.025 16.2832C107.638 16.1973 107.263 16.0684 106.9 15.8965C106.704 15.8027 106.521 15.6875 106.349 15.5508C105.833 15.1211 105.704 14.584 105.962 13.9395C106.142 13.5176 106.4 13.1465 106.736 12.8262C107.173 12.373 107.654 11.9648 108.177 11.6016C109.603 10.625 111.12 9.83594 112.73 9.23438C114.027 8.73438 115.343 8.31445 116.679 7.97461C118.015 7.63477 119.366 7.35352 120.734 7.13086C122.839 6.75977 124.958 6.57031 127.091 6.5625C127.157 6.5625 127.226 6.5625 127.296 6.5625C128.105 6.5625 128.909 6.60352 129.71 6.68555C130.515 6.76758 131.308 6.91992 132.089 7.14258C132.734 7.32227 133.345 7.58008 133.923 7.91602C134.224 8.0957 134.493 8.31055 134.732 8.56055C135.525 9.38477 135.714 10.3477 135.3 11.4492C135.112 11.9375 134.855 12.3926 134.527 12.8145C133.925 13.6074 133.255 14.334 132.517 14.9941C131.614 15.8105 130.673 16.5801 129.693 17.3027C129.665 17.3262 129.63 17.3477 129.587 17.3672C129.536 17.4023 129.486 17.4414 129.435 17.4844C129.384 17.5273 129.349 17.5859 129.329 17.6602C129.364 17.6875 129.396 17.7012 129.423 17.7012C129.466 17.6934 129.509 17.6855 129.552 17.6777C129.595 17.6582 129.638 17.6445 129.681 17.6367C132.216 17.1211 134.759 16.6953 137.31 16.3594C138.54 16.207 139.765 16.0664 140.984 15.9375C141.405 15.8945 141.823 15.8516 142.237 15.8086C142.382 15.7891 142.532 15.7793 142.689 15.7793C142.833 15.7715 142.978 15.7852 143.122 15.8203C143.142 15.8281 143.159 15.8438 143.175 15.8672C143.195 15.8867 143.204 15.9043 143.204 15.9199C143.212 15.9746 143.202 16.0156 143.175 16.043C143.152 16.0664 143.122 16.082 143.087 16.0898ZM113.837 25.5C113.837 25.5 113.841 25.5 113.849 25.5C113.911 25.4727 113.97 25.4375 114.025 25.3945C114.079 25.3516 114.116 25.293 114.136 25.2188C114.116 25.2188 114.103 25.2188 114.095 25.2188C113.923 25.2266 113.814 25.2031 113.767 25.1484C113.72 25.0977 113.718 25 113.761 24.8555C113.784 24.7617 113.818 24.668 113.861 24.5742C113.872 24.5469 113.882 24.5254 113.89 24.5098C113.956 24.3379 114.021 24.1699 114.083 24.0059C114.236 23.6348 114.382 23.2598 114.523 22.8809C114.53 22.8652 114.542 22.8438 114.558 22.8164C114.585 22.7578 114.603 22.7012 114.611 22.6465C114.618 22.5879 114.605 22.5293 114.57 22.4707C114.562 22.4707 114.554 22.4707 114.546 22.4707C114.503 22.4785 114.464 22.4922 114.429 22.5117C114.405 22.5195 114.384 22.5273 114.364 22.5352C113.275 22.9297 112.196 23.3477 111.13 23.7891C110.064 24.2266 109.011 24.7031 107.972 25.2188C107.128 25.6211 106.312 26.0723 105.523 26.5723C105.066 26.8457 104.65 27.1719 104.275 27.5508C104.068 27.7383 103.911 27.9648 103.806 28.2305C103.775 28.3164 103.777 28.3984 103.812 28.4766C103.851 28.5547 103.919 28.6074 104.017 28.6348C104.126 28.666 104.241 28.6816 104.362 28.6816C104.491 28.6816 104.62 28.6699 104.749 28.6465C105.581 28.498 106.405 28.291 107.222 28.0254C108.995 27.459 110.741 26.8145 112.46 26.0918C112.921 25.9043 113.38 25.707 113.837 25.5ZM125.761 19.2246C125.769 19.2051 125.782 19.1914 125.802 19.1836C125.833 19.168 125.857 19.1465 125.872 19.1191C125.892 19.0918 125.89 19.0527 125.866 19.002C125.823 19.0098 125.775 19.0234 125.72 19.043C125.431 19.1211 125.144 19.1934 124.859 19.2598C124.077 19.4668 123.3 19.6777 122.527 19.8926C120.378 20.4941 118.247 21.1602 116.134 21.8906C115.95 21.9492 115.796 22.0312 115.671 22.1367C115.55 22.2383 115.462 22.3848 115.407 22.5762C115.376 22.6699 115.339 22.7637 115.296 22.8574C115.269 22.9004 115.247 22.9434 115.232 22.9863C115.177 23.1152 115.091 23.2949 114.974 23.5254C114.853 23.7598 114.732 24.0059 114.611 24.2637C114.489 24.5215 114.405 24.7422 114.359 24.9258C114.312 25.1094 114.331 25.2148 114.417 25.2422C114.538 25.2148 114.65 25.168 114.751 25.1016C114.802 25.0742 114.855 25.0488 114.909 25.0254C117.237 24.002 119.515 22.8672 121.741 21.6211C122.624 21.1133 123.499 20.5977 124.366 20.0742C124.745 19.8398 125.124 19.6113 125.503 19.3887C125.511 19.3809 125.519 19.377 125.527 19.377C125.612 19.334 125.691 19.2832 125.761 19.2246Z" fill="black"/>
</svg>
